<?xml version="1.0" standalone="no"?>
<!DOCTYPE svg PUBLIC "-//W3C//DTD SVG 20010904//EN"
 "http://www.w3.org/TR/2001/REC-SVG-20010904/DTD/svg10.dtd">
<svg version="1.0" xmlns="http://www.w3.org/2000/svg"
 width="4000.000000pt" height="4000.000000pt" viewBox="0 0 4000.000000 4000.000000"
 preserveAspectRatio="xMidYMid meet">

<g transform="translate(0.000000,4000.000000) scale(0.100000,-0.100000)"
fill="#000000" stroke="none">
<path d="M18030 32395 c-8 -2 -55 -8 -105 -15 -311 -40 -588 -139 -885 -314
-63 -38 -129 -80 -147 -95 -17 -14 -63 -50 -101 -80 -39 -29 -83 -66 -98 -82
-15 -16 -33 -29 -39 -29 -6 0 -67 23 -136 51 -160 66 -334 126 -429 149 -19 4
-69 16 -110 26 -95 23 -403 26 -495 6 -204 -45 -388 -145 -527 -285 -67 -67
-154 -178 -194 -247 -35 -60 -93 -221 -108 -298 -8 -40 -16 -75 -17 -77 -2 -2
-60 -22 -129 -45 -153 -51 -340 -143 -480 -235 -163 -108 -365 -321 -462 -489
-110 -189 -199 -434 -216 -596 -17 -161 0 -335 45 -463 104 -298 323 -513 718
-705 130 -64 328 -163 390 -196 174 -93 333 -272 401 -452 67 -179 153 -276
283 -319 65 -21 175 -16 249 11 62 23 169 92 262 168 154 127 381 266 630 385
292 139 574 224 870 261 109 14 378 17 525 7 287 -21 611 -94 856 -192 48 -19
89 -35 93 -35 3 0 31 -12 62 -26 31 -14 58 -23 61 -20 11 10 -67 93 -171 183
-123 105 -279 208 -406 265 -47 22 -96 45 -110 53 -49 26 -298 95 -401 111
-213 32 -603 19 -814 -27 -324 -71 -532 -142 -813 -276 -202 -96 -454 -251
-612 -378 -47 -37 -102 -79 -123 -93 l-39 -26 -18 23 c-9 13 -25 49 -35 80
-59 192 -229 398 -445 543 -108 72 -305 177 -412 219 -99 39 -307 147 -393
204 -236 156 -339 346 -338 620 1 106 15 182 62 331 75 236 263 501 457 645
153 113 323 209 486 273 93 37 279 82 396 97 106 13 326 16 463 5 89 -7 330
-53 429 -82 30 -9 76 -22 103 -29 26 -8 52 -17 58 -21 7 -4 10 -1 7 7 -9 31
-255 132 -470 193 -219 62 -536 90 -738 66 -123 -15 -135 -16 -177 -26 -22 -4
-33 -3 -33 5 0 22 120 178 193 250 148 146 332 249 511 287 84 18 285 21 353
5 26 -6 89 -20 138 -32 99 -23 227 -68 440 -154 229 -93 492 -183 580 -198
179 -31 237 -37 350 -37 72 0 148 2 170 5 271 33 479 108 700 253 100 66 306
254 293 267 -4 4 -33 -5 -65 -20 -196 -92 -369 -143 -608 -180 -232 -37 -627
2 -792 78 -12 5 -64 24 -115 41 -59 20 -94 37 -96 47 -6 32 408 190 653 249
302 73 631 91 904 51 151 -22 332 -74 458 -131 36 -17 70 -30 74 -30 9 0 85
-47 193 -118 255 -171 468 -451 538 -709 31 -116 31 -319 -1 -427 -87 -299
-299 -528 -661 -714 -80 -40 -144 -77 -142 -80 8 -18 237 26 367 69 160 54
326 155 462 280 54 50 138 151 163 197 12 20 31 56 45 80 13 23 33 68 43 99
11 32 25 59 30 61 9 3 100 -109 160 -197 47 -69 111 -198 139 -281 24 -74 28
-100 28 -200 -1 -135 -17 -207 -74 -321 -53 -105 -89 -154 -206 -276 -103
-109 -228 -208 -374 -301 -90 -56 -359 -192 -381 -192 -7 0 -34 19 -60 43
-107 97 -276 227 -296 227 -4 0 -15 7 -24 15 -36 33 -279 148 -390 185 -244
82 -446 112 -695 105 -290 -8 -567 -68 -830 -180 -140 -60 -358 -176 -372
-197 -8 -14 59 -4 124 18 41 14 139 36 327 74 296 60 712 60 967 0 129 -30
322 -95 417 -141 57 -27 105 -49 108 -49 3 0 17 -8 32 -18 15 -10 68 -45 117
-78 50 -32 96 -63 103 -69 41 -31 187 -169 251 -236 110 -118 143 -121 359
-30 199 84 429 218 582 340 131 105 347 338 391 423 66 125 119 242 132 288
60 216 39 450 -57 638 -70 137 -237 322 -377 418 -85 59 -78 31 -64 254 6 106
4 144 -14 253 -26 149 -44 205 -106 329 -53 106 -172 286 -236 354 -125 136
-383 331 -524 395 -38 17 -88 40 -110 50 -91 42 -332 106 -483 128 -63 10
-381 14 -422 6z"/>
<path d="M17437 28124 c-1 -1 -33 -5 -72 -8 -310 -28 -710 -171 -985 -351
-135 -89 -186 -128 -319 -247 -90 -79 -93 -83 -178 -186 -91 -110 -78 -109
140 3 610 313 1125 463 1600 466 329 2 659 -82 854 -217 147 -101 253 -239
300 -389 14 -43 39 -44 45 -3 23 147 -41 341 -164 495 -175 221 -526 389 -893
429 -109 12 -318 17 -328 8z"/>
<path d="M12345 27474 c-766 -33 -1317 -163 -1874 -445 -307 -156 -570 -347
-802 -585 -223 -230 -370 -436 -504 -709 -129 -260 -204 -504 -240 -778 -17
-135 -20 -417 -5 -552 52 -459 232 -825 564 -1142 264 -252 623 -427 1002
-489 147 -24 427 -24 583 0 556 85 1025 371 1313 801 153 227 268 541 285 777
l6 87 -31 30 c-25 25 -39 31 -74 31 -77 0 -104 -35 -153 -195 -71 -238 -292
-579 -504 -778 -202 -190 -396 -316 -593 -386 -167 -58 -287 -76 -523 -75
-235 0 -325 14 -523 80 -413 137 -686 437 -771 849 -107 514 -2 1005 314 1480
186 280 483 570 797 778 371 247 837 435 1312 532 337 68 571 89 1001 88 661
-1 1232 -60 1835 -189 214 -46 699 -167 959 -239 358 -99 841 -250 841 -262 0
-3 -42 -71 -93 -152 -296 -464 -485 -817 -1156 -2158 -429 -858 -431 -863
-458 -858 -25 5 -618 74 -913 106 -246 28 -596 10 -839 -42 -464 -99 -762
-267 -984 -554 -108 -140 -232 -362 -251 -452 -16 -71 37 -163 93 -163 26 0
34 7 53 44 28 55 199 240 276 299 223 171 573 284 1026 332 297 31 519 36 891
20 193 -8 378 -18 411 -21 l62 -5 -213 -432 c-309 -627 -473 -911 -755 -1307
-263 -368 -503 -654 -810 -960 -517 -518 -1016 -881 -1594 -1161 -492 -237
-937 -370 -1466 -436 -207 -26 -857 -26 -1075 0 -1047 125 -1841 513 -2358
1152 -307 379 -479 815 -528 1338 -15 163 -7 568 15 737 50 378 147 710 301
1025 125 255 267 454 457 642 123 122 205 189 354 288 61 41 114 81 118 90 11
30 6 73 -11 90 -21 22 -64 15 -203 -31 -750 -248 -1382 -1018 -1594 -1942 -64
-277 -95 -656 -77 -927 45 -663 294 -1203 775 -1680 578 -573 1428 -947 2446
-1074 296 -37 457 -46 850 -46 465 0 764 24 1240 100 930 149 1788 502 2485
1022 712 531 1210 1129 1624 1953 156 310 410 898 600 1390 l52 135 567 0
c860 0 1237 31 1476 122 90 34 136 74 136 119 0 64 -9 66 -390 75 -566 13
-1589 77 -1614 100 -5 4 55 175 137 391 175 460 291 773 479 1288 200 551 324
853 468 1140 72 145 178 338 189 345 4 2 136 -38 292 -90 622 -206 1322 -425
1534 -480 430 -113 812 -165 1218 -166 125 0 227 -1 227 -4 0 -2 -27 -50 -61
-107 -652 -1101 -1296 -2590 -1684 -3888 -228 -763 -283 -1001 -305 -1331 -21
-308 22 -504 156 -706 140 -211 339 -303 655 -303 344 0 602 100 901 349 198
166 376 381 568 686 34 55 65 103 69 107 3 4 5 -60 3 -142 -8 -378 92 -676
289 -853 175 -159 422 -181 662 -60 339 170 771 621 1170 1218 58 87 97 138
93 121 -19 -77 -56 -272 -72 -371 -25 -166 -24 -459 4 -589 39 -184 108 -289
243 -369 107 -63 204 -89 349 -94 154 -6 228 9 355 72 227 112 513 416 773
820 138 215 230 380 420 755 96 190 172 336 168 325 -5 -11 -43 -126 -86 -255
-184 -555 -248 -869 -237 -1159 6 -151 21 -220 72 -329 64 -136 185 -230 335
-262 153 -32 350 -22 518 26 357 102 742 451 1090 988 78 121 197 327 252 437
22 43 42 79 44 79 2 0 16 -24 31 -52 43 -83 79 -130 142 -189 111 -102 219
-141 388 -141 115 1 188 18 292 67 107 50 157 87 267 199 55 56 96 92 92 81
-5 -11 -11 -117 -13 -235 -4 -163 -1 -239 11 -315 57 -372 241 -678 476 -793
142 -70 217 -86 415 -85 151 0 181 3 267 26 130 35 245 82 359 150 409 240
837 703 1122 1210 57 102 62 108 86 102 14 -3 83 -8 152 -12 146 -6 249 10
365 58 245 102 494 379 687 765 74 149 140 316 236 594 44 129 96 276 114 325
33 87 35 90 68 93 19 2 90 -1 159 -8 412 -37 647 -131 705 -283 13 -36 17 -65
13 -127 -4 -72 -10 -91 -62 -197 -70 -144 -111 -216 -284 -498 -208 -339 -309
-547 -411 -852 -145 -433 -157 -773 -35 -1021 61 -126 205 -246 365 -307 106
-40 244 -46 354 -16 166 45 371 165 524 307 181 166 445 518 623 829 153 266
451 866 465 936 7 37 -12 68 -52 85 -62 26 -80 20 -100 -33 -58 -157 -294
-610 -463 -888 -275 -453 -551 -795 -723 -893 -105 -60 -223 -73 -298 -33 -33
18 -80 80 -93 123 -19 62 -16 274 6 381 71 362 220 723 693 1672 252 506 344
733 379 935 13 79 14 104 3 153 l-12 58 -36 -6 c-66 -10 -304 -34 -471 -47
-185 -14 -876 -15 -983 -2 l-67 9 97 81 c135 112 315 286 368 354 97 126 144
244 165 414 35 273 -40 491 -207 603 -151 100 -315 70 -415 -78 -47 -70 -61
-113 -109 -349 -133 -652 -336 -1329 -589 -1965 -149 -376 -395 -719 -600
-839 -109 -64 -199 -89 -322 -90 -58 -1 -109 2 -112 5 -4 4 13 60 37 125 94
254 143 437 174 649 23 161 23 473 0 605 -69 399 -260 685 -530 793 -152 61
-388 79 -570 43 -645 -125 -1380 -871 -1721 -1746 -154 -395 -354 -708 -529
-829 -99 -68 -171 -94 -277 -99 -72 -3 -111 0 -156 13 -149 43 -273 176 -329
356 l-17 55 30 70 c16 38 58 132 92 209 195 437 471 1189 641 1745 75 244 76
316 4 379 -84 74 -298 60 -450 -28 -197 -114 -374 -410 -470 -785 -70 -276
-105 -558 -105 -856 0 -209 10 -320 41 -497 l22 -121 -66 -136 c-324 -668
-746 -1210 -1042 -1341 -89 -40 -207 -59 -282 -47 -183 30 -242 128 -230 382
3 69 13 163 22 210 42 225 160 601 343 1095 176 475 292 909 337 1258 19 151
20 460 1 540 -22 93 -78 137 -174 137 -100 0 -504 -58 -735 -106 l-29 -6 30
-18 c94 -57 142 -212 142 -457 0 -193 -26 -375 -77 -538 -33 -107 -195 -529
-241 -630 -20 -44 -89 -186 -153 -315 -537 -1086 -1007 -1637 -1329 -1560
-135 32 -189 192 -161 476 61 609 401 1429 825 1989 33 44 109 135 169 203
l108 122 -91 0 c-57 0 -124 8 -183 22 -134 31 -307 31 -402 0 -102 -34 -169
-84 -245 -184 -86 -114 -216 -324 -330 -533 -239 -438 -436 -769 -645 -1085
-221 -333 -344 -489 -536 -676 -222 -215 -393 -304 -585 -304 -187 0 -271 102
-281 340 -6 134 13 283 57 456 121 468 506 1148 960 1694 138 166 489 515 621
617 286 222 521 329 744 340 256 12 415 -78 522 -294 l48 -98 45 -3 c121 -7
185 117 126 243 -26 56 -139 169 -232 232 -333 226 -831 271 -1300 118 -470
-154 -958 -535 -1347 -1051 -87 -116 -242 -351 -312 -473 -73 -130 -195 -382
-249 -518 -86 -217 -327 -649 -499 -895 -250 -357 -511 -619 -727 -728 -108
-55 -189 -73 -308 -68 -95 3 -115 7 -174 35 -128 60 -210 181 -251 371 -30
141 -30 397 1 577 45 258 130 567 229 823 l55 144 210 206 c643 632 1055 1189
1582 2138 221 398 527 1025 645 1322 121 303 185 638 162 846 -18 160 -46 231
-123 312 -88 93 -221 131 -359 102 l-67 -14 -40 38 c-31 28 -50 38 -74 38 -55
0 -72 -22 -83 -110 l-8 -55 -99 -65 c-56 -36 -151 -113 -214 -172 -62 -60
-117 -108 -121 -108 -5 0 -91 -5 -192 -10 -394 -23 -866 28 -1350 145 -204 50
-713 195 -1066 305 -278 87 -717 229 -723 235 -10 10 240 247 303 288 126 81
265 126 385 127 74 0 118 24 148 80 31 59 25 111 -17 154 -29 28 -38 31 -110
34 -131 6 -279 -45 -420 -145 -90 -65 -275 -246 -384 -376 -66 -79 -94 -106
-106 -102 -61 25 -738 256 -1076 368 -1168 386 -1973 575 -2665 626 -152 12
-534 20 -655 15z m8829 -1773 c56 -61 28 -339 -61 -616 -78 -241 -365 -847
-616 -1296 -372 -668 -799 -1307 -1172 -1754 -110 -132 -353 -405 -361 -405
-2 0 1 12 7 28 6 15 35 92 66 172 247 653 670 1605 1043 2350 309 618 477 906
701 1206 212 283 333 381 393 315z m9272 -3038 c139 -47 238 -171 279 -349 37
-156 36 -441 -1 -642 l-16 -92 -50 45 c-73 65 -141 88 -253 83 -72 -4 -100 -9
-141 -31 -92 -47 -142 -132 -165 -279 -28 -180 68 -432 243 -638 l69 -81 -59
-112 c-188 -359 -464 -725 -716 -949 -235 -209 -435 -299 -635 -285 -140 9
-231 71 -295 200 -60 122 -80 225 -80 417 0 192 17 320 74 557 94 390 277 854
469 1188 191 332 442 634 666 803 82 62 246 146 325 166 78 21 224 20 286 -1z"/>
<path d="M15712 19359 c-697 -33 -1286 -202 -1783 -511 -285 -178 -580 -463
-767 -740 -270 -401 -403 -878 -372 -1335 30 -450 185 -793 492 -1089 217
-209 502 -357 818 -426 91 -19 134 -22 325 -23 193 0 234 3 335 24 167 34 308
82 455 156 377 188 657 501 789 884 43 123 76 278 76 356 0 70 -28 105 -85
105 -69 0 -94 -31 -135 -170 -67 -227 -283 -547 -491 -727 -244 -211 -431
-305 -688 -348 -81 -14 -141 -16 -284 -12 -160 4 -196 8 -297 34 -199 52 -307
102 -439 202 -180 136 -305 342 -358 590 -22 101 -25 143 -26 321 -1 176 2
219 21 305 79 362 265 694 552 985 483 489 1164 795 1965 880 165 18 603 23
845 11 658 -34 1122 -110 1885 -312 360 -95 945 -272 945 -285 0 -4 -38 -65
-83 -138 -145 -227 -263 -431 -433 -746 -72 -135 -937 -1853 -946 -1881 -4
-11 -72 -6 -334 25 -531 61 -581 66 -747 66 -262 0 -489 -35 -724 -111 -372
-121 -600 -318 -784 -675 -48 -93 -59 -123 -59 -162 0 -61 33 -116 72 -120 23
-3 32 5 61 50 46 72 208 235 282 283 211 138 506 223 900 259 290 27 426 29
790 11 193 -9 351 -18 353 -20 7 -7 -420 -851 -504 -995 -201 -344 -464 -716
-719 -1015 -143 -167 -486 -514 -640 -646 -647 -557 -1329 -908 -2049 -1055
-413 -84 -947 -97 -1398 -34 -1259 177 -2144 883 -2351 1875 -96 458 -63 1007
88 1474 170 525 455 914 862 1177 85 55 103 76 103 116 0 58 -39 61 -185 13
-399 -130 -757 -419 -1033 -830 -88 -131 -228 -410 -281 -560 -58 -162 -106
-354 -131 -521 -27 -180 -38 -531 -21 -699 91 -892 684 -1611 1671 -2025 768
-323 1768 -419 2810 -270 524 75 853 160 1283 332 213 84 575 264 732 362 483
303 954 730 1268 1150 337 449 551 866 933 1816 l122 305 514 0 c879 2 1275
50 1373 167 30 36 32 59 4 84 -19 17 -46 19 -318 26 -458 11 -1403 69 -1423
87 -4 3 22 83 58 176 103 266 360 957 493 1321 178 491 270 712 408 987 85
170 152 287 165 287 6 0 211 -65 457 -145 1147 -371 1378 -432 1831 -481 176
-19 551 -22 670 -5 342 48 579 173 671 353 30 59 45 167 31 227 -14 62 -56
127 -93 147 -37 18 -52 18 -79 -4 -18 -15 -24 -33 -31 -101 -23 -234 -151
-316 -532 -343 -347 -24 -782 23 -1229 133 -358 88 -1538 448 -1538 469 0 4
34 43 75 88 162 174 312 255 503 271 106 9 130 24 158 96 15 40 15 45 -2 80
-30 64 -111 81 -242 50 -169 -40 -355 -180 -561 -424 -52 -61 -98 -111 -102
-111 -4 0 -135 44 -290 99 -587 204 -1167 391 -1494 481 -691 191 -1153 274
-1660 300 -219 11 -262 11 -503 -1z"/>
<path d="M29344 18036 c-128 -30 -211 -91 -324 -241 -141 -187 -277 -428 -679
-1200 -214 -410 -794 -1567 -1093 -2180 -131 -269 -242 -492 -246 -495 -4 -3
-29 -54 -56 -115 -117 -266 -341 -677 -478 -876 -150 -219 -355 -439 -513
-552 -169 -120 -363 -185 -580 -194 -112 -5 -142 -3 -215 16 -150 38 -233 105
-309 249 -148 285 -131 725 48 1260 119 354 308 722 515 1000 116 155 338 375
455 451 209 134 456 176 573 98 56 -38 82 -98 86 -202 8 -201 -65 -388 -259
-658 -77 -107 -77 -111 -15 -141 97 -46 210 -1 352 139 178 175 263 359 264
570 0 196 -121 392 -293 474 -200 95 -561 97 -819 5 -362 -130 -719 -430 -997
-839 -133 -196 -237 -390 -371 -695 -236 -538 -495 -997 -718 -1277 -250 -314
-453 -437 -693 -420 -183 12 -267 104 -310 337 -19 102 -16 357 5 485 78 473
432 1493 840 2420 l35 80 439 5 439 5 41 29 c45 31 96 119 108 189 l6 37 -451
0 c-305 0 -451 3 -451 10 0 14 265 540 386 765 122 229 239 433 321 559 35 54
62 101 59 103 -10 11 -203 -20 -281 -44 -195 -61 -391 -199 -518 -366 -99
-130 -266 -421 -347 -607 -23 -52 -76 -168 -117 -257 l-76 -163 -279 0 c-257
0 -282 -2 -317 -20 -61 -31 -134 -137 -142 -205 l-4 -30 313 -3 c171 -1 312
-5 312 -8 0 -3 -58 -150 -129 -327 -175 -437 -304 -784 -423 -1142 -80 -239
-117 -332 -181 -460 -273 -548 -572 -943 -892 -1183 -208 -156 -415 -237 -637
-249 -289 -16 -420 87 -499 392 -20 78 -23 113 -23 265 1 114 6 208 17 271 19
110 67 301 94 374 21 56 21 56 166 74 166 22 415 98 662 203 268 115 446 232
652 431 349 338 522 721 459 1016 -29 138 -103 225 -249 291 -97 44 -177 60
-300 60 -373 0 -748 -197 -1143 -601 -435 -447 -774 -1072 -891 -1644 -30
-150 -42 -437 -24 -566 28 -191 98 -344 214 -466 218 -229 535 -333 898 -293
199 21 360 70 522 158 317 172 615 486 847 894 24 43 45 76 48 74 2 -2 -1 -39
-7 -81 -16 -112 -14 -348 4 -451 44 -258 154 -444 305 -517 111 -54 199 -70
380 -70 197 -1 270 15 425 93 130 64 214 128 356 270 162 162 313 372 490 680
l49 85 0 -115 c1 -210 33 -358 114 -525 146 -298 389 -454 773 -496 126 -14
343 -6 453 16 165 33 347 110 486 207 40 27 120 92 177 143 l105 94 -48 -102
c-26 -56 -79 -166 -119 -244 -39 -79 -71 -145 -71 -147 0 -3 20 4 45 15 36 16
91 23 263 35 119 9 235 20 257 26 59 15 104 69 175 210 383 752 776 1304 1305
1833 333 334 574 495 741 495 48 0 60 -4 85 -29 25 -25 29 -37 29 -83 0 -105
-7 -120 -353 -708 -248 -421 -349 -691 -379 -1012 -20 -215 10 -380 92 -507
58 -89 182 -172 335 -223 97 -32 274 -32 388 0 95 27 208 83 305 152 93 65
262 228 364 350 91 108 276 382 369 544 116 205 379 759 379 801 0 30 -45 67
-84 69 l-37 1 -45 -110 c-58 -147 -204 -437 -305 -610 -187 -320 -364 -566
-537 -746 -122 -128 -199 -189 -302 -238 -66 -32 -84 -36 -151 -36 -67 0 -80
3 -116 28 -66 45 -78 86 -78 257 0 113 5 169 23 253 94 440 428 1176 1064
2340 66 121 116 222 113 225 -17 17 -193 4 -286 -22 -361 -98 -1030 -485
-1452 -838 -298 -249 -490 -450 -855 -893 -70 -85 619 1264 1106 2165 692
1282 1086 1942 1359 2277 l34 41 -58 -5 c-39 -3 -92 2 -158 16 -131 28 -263
35 -341 17z m-7414 -2735 c45 -33 63 -78 68 -168 15 -292 -236 -747 -555
-1004 -221 -177 -425 -277 -743 -363 -82 -22 -253 -56 -282 -56 -12 0 32 80
169 309 245 408 469 704 739 975 267 268 497 385 604 307z"/>
<path d="M8575 8618 c-174 -33 -326 -185 -370 -369 -75 -320 109 -621 402
-658 223 -28 419 65 509 241 31 61 30 68 -9 68 -28 0 -35 -6 -57 -47 -127
-242 -497 -282 -681 -74 -76 86 -108 183 -109 326 0 154 42 267 130 349 194
182 527 140 652 -81 27 -48 33 -53 65 -53 31 0 34 2 28 23 -13 41 -65 114
-116 162 -108 101 -279 145 -444 113z"/>
<path d="M15435 8618 c-174 -33 -326 -185 -370 -369 -75 -320 109 -621 402
-658 223 -28 419 65 509 241 31 61 30 68 -9 68 -28 0 -35 -6 -57 -47 -127
-242 -497 -282 -681 -74 -76 86 -108 183 -109 326 0 154 42 267 130 349 194
182 527 140 652 -81 27 -48 33 -53 65 -53 31 0 34 2 28 23 -13 41 -65 114
-116 162 -108 101 -279 145 -444 113z"/>
<path d="M23285 8618 c-174 -33 -326 -185 -370 -369 -75 -320 109 -621 402
-658 223 -28 419 65 509 241 31 61 30 68 -9 68 -28 0 -35 -6 -57 -47 -127
-242 -497 -282 -681 -74 -76 86 -108 183 -109 326 0 154 42 267 130 349 194
182 527 140 652 -81 27 -48 33 -53 65 -53 31 0 34 2 28 23 -13 41 -65 114
-116 162 -108 101 -279 145 -444 113z"/>
<path d="M16533 8605 c-157 -43 -270 -147 -334 -310 -20 -52 -23 -77 -23 -195
0 -118 3 -143 23 -195 82 -208 250 -325 466 -325 289 0 495 217 495 520 0 252
-141 446 -365 505 -73 18 -192 18 -262 0z m318 -83 c155 -74 239 -223 239
-422 0 -156 -43 -264 -142 -355 -74 -68 -144 -96 -259 -103 -140 -7 -244 32
-332 127 -83 89 -117 185 -117 331 0 147 34 242 117 331 92 99 174 131 323
126 94 -2 112 -6 171 -35z"/>
<path d="M7773 8471 c-29 -76 -53 -144 -53 -150 0 -8 14 -11 37 -9 l38 3 37
130 c44 157 45 165 16 165 -20 0 -29 -17 -75 -139z"/>
<path d="M8007 8603 c-9 -15 -107 -275 -107 -284 0 -5 18 -9 40 -9 22 0 40 2
40 5 0 5 65 244 75 275 5 16 2 20 -19 20 -14 0 -27 -3 -29 -7z"/>
<path d="M9340 8283 c0 -181 5 -359 10 -398 20 -133 81 -222 190 -274 48 -23
68 -26 160 -26 99 0 110 2 172 33 75 37 110 73 145 148 35 77 42 167 43 522
l0 322 -34 0 -35 0 -3 -377 c-4 -430 -6 -442 -84 -519 -111 -112 -348 -94
-436 32 -52 75 -58 124 -58 511 l0 353 -35 0 -35 0 0 -327z"/>
<path d="M10290 8100 l0 -510 226 0 225 0 -3 28 -3 27 -187 3 -188 2 0 480 0
480 -35 0 -35 0 0 -510z"/>
<path d="M10890 8100 l0 -510 35 0 35 0 0 510 0 510 -35 0 -35 0 0 -510z"/>
<path d="M11190 8100 l0 -510 35 0 35 0 2 450 3 449 295 -449 c289 -443 295
-450 327 -450 l33 0 0 510 0 510 -35 0 -35 0 -2 -447 -3 -448 -294 448 c-290
440 -295 447 -328 447 l-33 0 0 -510z"/>
<path d="M13080 8101 l0 -511 35 0 35 0 0 215 0 215 113 0 112 -1 128 -214
128 -215 41 0 c40 0 40 0 26 23 -35 53 -248 406 -248 411 0 2 24 11 53 20 72
21 128 65 163 128 26 48 29 62 29 148 0 78 -4 102 -22 135 -29 54 -78 99 -138
127 -46 21 -66 23 -252 26 l-203 3 0 -510z m406 434 c94 -28 144 -103 144
-215 0 -105 -46 -177 -135 -216 -30 -14 -76 -19 -192 -22 l-153 -4 0 236 0
236 143 0 c97 0 159 -5 193 -15z"/>
<path d="M13826 8578 c9 -18 82 -154 161 -301 l143 -269 0 -209 0 -209 35 0
35 0 0 208 0 208 111 210 c61 115 133 251 160 302 l49 92 -38 0 -39 0 -123
-242 c-68 -134 -131 -256 -141 -271 l-17 -29 -138 271 -139 271 -38 0 -38 0
17 -32z"/>
<path d="M17360 8100 l0 -510 35 0 35 0 2 450 3 449 295 -449 c289 -443 295
-450 327 -450 l33 0 0 510 0 510 -35 0 -35 0 -2 -447 -3 -448 -294 448 c-290
440 -295 447 -328 447 l-33 0 0 -510z"/>
<path d="M18285 8543 c14 -37 101 -266 193 -508 l168 -440 38 0 39 0 193 505
c107 278 194 506 194 508 0 2 -16 2 -36 0 l-36 -3 -149 -395 c-82 -217 -161
-426 -175 -463 -15 -38 -29 -65 -32 -62 -4 3 -83 212 -177 463 l-171 457 -37
3 -37 3 25 -68z"/>
<path d="M19270 8100 l0 -510 261 0 260 0 -3 28 -3 27 -222 3 -223 2 0 210 0
210 200 0 200 0 0 30 0 30 -200 0 -200 0 0 215 0 215 225 0 225 0 0 25 0 25
-260 0 -260 0 0 -510z"/>
<path d="M19980 8100 l0 -510 35 0 35 0 2 450 3 449 295 -449 c289 -443 295
-450 327 -450 l33 0 0 510 0 510 -35 0 -35 0 -2 -447 -3 -448 -294 448 c-290
440 -295 447 -328 447 l-33 0 0 -510z"/>
<path d="M20950 8100 l0 -510 35 0 35 0 0 510 0 510 -35 0 -35 0 0 -510z"/>
<path d="M21260 8100 l0 -510 261 0 260 0 -3 28 -3 27 -222 3 -223 2 0 210 0
210 200 0 200 0 0 30 0 30 -200 0 -200 0 0 215 0 215 225 0 225 0 0 25 0 25
-260 0 -260 0 0 -510z"/>
<path d="M21970 8100 l0 -510 35 0 35 0 2 450 3 449 295 -449 c289 -443 295
-450 327 -450 l33 0 0 510 0 510 -35 0 -35 0 -2 -447 -3 -448 -294 448 c-290
440 -295 447 -328 447 l-33 0 0 -510z"/>
<path d="M24070 8100 l0 -510 261 0 260 0 -3 28 -3 27 -222 3 -223 2 0 210 0
210 200 0 200 0 0 30 0 30 -200 0 -200 0 0 215 0 215 225 0 225 0 0 25 0 25
-260 0 -260 0 0 -510z"/>
<path d="M25190 8099 l0 -511 218 4 c186 4 226 8 283 26 163 53 270 168 310
332 17 71 17 229 0 300 -33 133 -117 242 -231 300 -96 48 -169 60 -387 60
l-193 0 0 -511z m472 432 c129 -41 217 -126 260 -251 33 -93 32 -279 -1 -362
-48 -122 -123 -198 -238 -241 -50 -18 -84 -22 -240 -25 l-183 -4 0 458 0 457
168 -6 c131 -4 181 -9 234 -26z"/>
<path d="M26220 8100 l0 -510 261 0 260 0 -3 28 -3 27 -222 3 -223 2 0 210 0
210 200 0 200 0 0 30 0 30 -200 0 -200 0 0 215 0 215 225 0 225 0 0 25 0 25
-260 0 -260 0 0 -510z"/>
<path d="M26930 8100 l0 -510 226 0 225 0 -3 28 -3 27 -187 3 -188 2 0 480 0
480 -35 0 -35 0 0 -510z"/>
<path d="M27530 8100 l0 -510 35 0 35 0 0 510 0 510 -35 0 -35 0 0 -510z"/>
<path d="M27775 8543 c14 -37 101 -266 193 -508 l168 -440 38 0 39 0 193 505
c107 278 194 506 194 508 0 2 -16 2 -36 0 l-36 -3 -149 -395 c-82 -217 -161
-426 -175 -463 -15 -38 -29 -65 -32 -62 -4 3 -83 212 -177 463 l-171 457 -37
3 -37 3 25 -68z"/>
<path d="M28760 8100 l0 -510 261 0 260 0 -3 28 -3 27 -222 3 -223 2 0 210 0
210 200 0 200 0 0 30 0 30 -200 0 -200 0 0 215 0 215 225 0 225 0 0 25 0 25
-260 0 -260 0 0 -510z"/>
<path d="M29480 8101 l0 -511 35 0 35 0 0 215 0 215 113 0 112 -1 128 -214
128 -215 41 0 c40 0 40 0 26 23 -35 53 -248 406 -248 411 0 2 24 11 53 20 72
21 128 65 163 128 26 48 29 62 29 148 0 78 -4 102 -22 135 -29 54 -78 99 -138
127 -46 21 -66 23 -252 26 l-203 3 0 -510z m406 434 c94 -28 144 -103 144
-215 0 -105 -46 -177 -135 -216 -30 -14 -76 -19 -192 -22 l-153 -4 0 236 0
236 143 0 c97 0 159 -5 193 -15z"/>
<path d="M30290 8100 l0 -510 261 0 260 0 -3 28 -3 27 -222 3 -223 2 0 210 0
210 200 0 200 0 0 30 0 30 -200 0 -200 0 0 215 0 215 225 0 225 0 0 25 0 25
-260 0 -260 0 0 -510z"/>
<path d="M31010 8099 l0 -511 218 4 c186 4 226 8 283 26 163 53 270 168 310
332 17 71 17 229 0 300 -33 133 -117 242 -231 300 -96 48 -169 60 -387 60
l-193 0 0 -511z m472 432 c129 -41 217 -126 260 -251 33 -93 32 -279 -1 -362
-48 -122 -123 -198 -238 -241 -50 -18 -84 -22 -240 -25 l-183 -4 0 458 0 457
168 -6 c131 -4 181 -9 234 -26z"/>
<path d="M31997 8471 c-21 -77 -37 -144 -37 -150 0 -14 37 -15 45 -1 3 5 30
72 59 150 l54 140 -42 0 -43 0 -36 -139z"/>
<path d="M32215 8598 c-8 -24 -75 -273 -75 -280 0 -5 11 -8 24 -8 21 0 29 14
74 133 28 72 53 140 57 150 6 14 1 17 -34 17 -24 0 -43 -5 -46 -12z"/>
<path d="M12455 8573 c-24 -61 -359 -951 -363 -965 -3 -15 2 -18 30 -18 l35 0
48 130 48 130 243 0 242 0 30 -77 c16 -43 38 -102 48 -130 18 -51 20 -53 56
-53 l37 0 -24 63 c-13 34 -97 259 -187 499 l-163 438 -36 0 c-26 0 -39 -5 -44
-17z m158 -380 l105 -283 -220 0 c-172 0 -219 3 -216 13 79 223 213 566 218
560 4 -4 55 -135 113 -290z"/>
</g>
</svg>
